<?xml version="1.0" encoding="UTF-8"?>
<svg width="900" height="1200" viewBox="0 0 900 1200" xmlns="http://www.w3.org/2000/svg" font-family="Inter, -apple-system, sans-serif">

  <!-- Background -->
  <rect width="900" height="1200" fill="#0a0a0a"/>

  <!-- Title -->
  <text x="450" y="40" text-anchor="middle" fill="#c4a35a" font-size="20" font-weight="600" letter-spacing="0.05em">OPENCLAW ARCHITECTURE</text>
  <text x="450" y="60" text-anchor="middle" fill="#555" font-size="11" letter-spacing="0.1em">HOW YOUR AI ACTUALLY WORKS</text>

  <!-- ═══════════════════════════════ -->
  <!-- LAYER 1: DEVICES -->
  <!-- ═══════════════════════════════ -->
  <rect x="40" y="80" width="820" height="80" rx="8" fill="#111" stroke="#1a1a1a" stroke-width="1"/>
  <text x="450" y="100" text-anchor="middle" fill="#555" font-size="10" letter-spacing="0.1em">YOUR DEVICES</text>

  <!-- Phone -->
  <rect x="80" y="108" width="160" height="36" rx="6" fill="#161616" stroke="#2a2a2a" stroke-width="1"/>
  <text x="160" y="126" text-anchor="middle" fill="#888" font-size="11">📱 Phone (Telegram)</text>
  <text x="160" y="138" text-anchor="middle" fill="#555" font-size="9">Sam's primary channel</text>

  <!-- Laptop -->
  <rect x="370" y="108" width="160" height="36" rx="6" fill="#161616" stroke="#2a2a2a" stroke-width="1"/>
  <text x="450" y="126" text-anchor="middle" fill="#888" font-size="11">💻 Laptop (WhatsApp)</text>
  <text x="450" y="138" text-anchor="middle" fill="#555" font-size="9">Secondary channel</text>

  <!-- Desktop -->
  <rect x="660" y="108" width="160" height="36" rx="6" fill="#161616" stroke="#2a2a2a" stroke-width="1"/>
  <text x="740" y="126" text-anchor="middle" fill="#888" font-size="11">🖥 Desktop (Web UI)</text>
  <text x="740" y="138" text-anchor="middle" fill="#555" font-size="9">Dashboard &amp; config</text>

  <!-- Arrows down from devices -->
  <line x1="160" y1="160" x2="160" y2="185" stroke="#2a2a2a" stroke-width="1" stroke-dasharray="4,3"/>
  <line x1="450" y1="160" x2="450" y2="185" stroke="#2a2a2a" stroke-width="1" stroke-dasharray="4,3"/>
  <line x1="740" y1="160" x2="740" y2="185" stroke="#2a2a2a" stroke-width="1" stroke-dasharray="4,3"/>

  <!-- ═══════════════════════════════ -->
  <!-- LAYER 2: CHANNELS -->
  <!-- ═══════════════════════════════ -->
  <rect x="40" y="185" width="820" height="80" rx="8" fill="#111" stroke="#1a1a1a" stroke-width="1"/>
  <text x="450" y="203" text-anchor="middle" fill="#555" font-size="10" letter-spacing="0.1em">CHANNEL LAYER</text>

  <rect x="65" y="210" width="110" height="38" rx="5" fill="#161616" stroke="#2a2a2a" stroke-width="1"/>
  <text x="120" y="228" text-anchor="middle" fill="#c4a35a" font-size="11" font-weight="500">Telegram</text>
  <text x="120" y="241" text-anchor="middle" fill="#555" font-size="9">✅ Active</text>

  <rect x="195" y="210" width="110" height="38" rx="5" fill="#161616" stroke="#2a2a2a" stroke-width="1"/>
  <text x="250" y="228" text-anchor="middle" fill="#888" font-size="11">WhatsApp</text>
  <text x="250" y="241" text-anchor="middle" fill="#555" font-size="9">✅ Active</text>

  <rect x="325" y="210" width="110" height="38" rx="5" fill="#161616" stroke="#2a2a2a" stroke-width="1"/>
  <text x="380" y="228" text-anchor="middle" fill="#888" font-size="11">Discord</text>
  <text x="380" y="241" text-anchor="middle" fill="#555" font-size="9">⏳ Available</text>

  <rect x="455" y="210" width="110" height="38" rx="5" fill="#161616" stroke="#2a2a2a" stroke-width="1"/>
  <text x="510" y="228" text-anchor="middle" fill="#888" font-size="11">iMessage</text>
  <text x="510" y="241" text-anchor="middle" fill="#555" font-size="9">⏳ Available</text>

  <rect x="585" y="210" width="110" height="38" rx="5" fill="#161616" stroke="#2a2a2a" stroke-width="1"/>
  <text x="640" y="228" text-anchor="middle" fill="#888" font-size="11">Signal</text>
  <text x="640" y="241" text-anchor="middle" fill="#555" font-size="9">⏳ Available</text>

  <rect x="715" y="210" width="110" height="38" rx="5" fill="#161616" stroke="#2a2a2a" stroke-width="1"/>
  <text x="770" y="228" text-anchor="middle" fill="#888" font-size="11">+ 10 more</text>
  <text x="770" y="241" text-anchor="middle" fill="#555" font-size="9">Slack, Matrix...</text>

  <!-- Arrow down -->
  <line x1="450" y1="265" x2="450" y2="295" stroke="#2a2a2a" stroke-width="1.5"/>
  <polygon points="450,295 445,285 455,285" fill="#2a2a2a"/>

  <!-- ═══════════════════════════════ -->
  <!-- LAYER 3: GATEWAY -->
  <!-- ═══════════════════════════════ -->
  <rect x="40" y="295" width="820" height="90" rx="8" fill="#111" stroke="#c4a35a" stroke-width="1.5"/>
  <text x="450" y="315" text-anchor="middle" fill="#c4a35a" font-size="10" letter-spacing="0.1em" font-weight="600">OPENCLAW GATEWAY — localhost:18789</text>

  <rect x="65" y="322" width="185" height="48" rx="5" fill="#161616" stroke="#2a2a2a" stroke-width="1"/>
  <text x="157" y="340" text-anchor="middle" fill="#888" font-size="10" font-weight="500">Routing Engine</text>
  <text x="157" y="352" text-anchor="middle" fill="#555" font-size="9">Sessions · Auth · Queuing</text>
  <text x="157" y="363" text-anchor="middle" fill="#555" font-size="9">allowFrom: [8638441101]</text>

  <rect x="270" y="322" width="185" height="48" rx="5" fill="#161616" stroke="#2a2a2a" stroke-width="1"/>
  <text x="362" y="340" text-anchor="middle" fill="#888" font-size="10" font-weight="500">Cron Scheduler</text>
  <text x="362" y="352" text-anchor="middle" fill="#555" font-size="9">01:00 · 08:00 · 09/13/18:00</text>
  <text x="362" y="363" text-anchor="middle" fill="#555" font-size="9">4 active jobs</text>

  <rect x="475" y="322" width="185" height="48" rx="5" fill="#161616" stroke="#2a2a2a" stroke-width="1"/>
  <text x="567" y="340" text-anchor="middle" fill="#888" font-size="10" font-weight="500">Approval Gate</text>
  <text x="567" y="352" text-anchor="middle" fill="#555" font-size="9">Rung 1→4 trust ladder</text>
  <text x="567" y="363" text-anchor="middle" fill="#555" font-size="9">BOUNDARIES.md enforced</text>

  <rect x="670" y="322" width="160" height="48" rx="5" fill="#161616" stroke="#2a2a2a" stroke-width="1"/>
  <text x="750" y="340" text-anchor="middle" fill="#888" font-size="10" font-weight="500">Hooks</text>
  <text x="750" y="352" text-anchor="middle" fill="#555" font-size="9">boot-md · session-memory</text>
  <text x="750" y="363" text-anchor="middle" fill="#555" font-size="9">command-logger</text>

  <!-- Arrow down -->
  <line x1="450" y1="385" x2="450" y2="415" stroke="#2a2a2a" stroke-width="1.5"/>
  <polygon points="450,415 445,405 455,405" fill="#2a2a2a"/>

  <!-- ═══════════════════════════════ -->
  <!-- LAYER 4: AGENT -->
  <!-- ═══════════════════════════════ -->
  <rect x="40" y="415" width="820" height="260" rx="8" fill="#111" stroke="#1a1a1a" stroke-width="1"/>
  <text x="450" y="435" text-anchor="middle" fill="#555" font-size="10" letter-spacing="0.1em">AGENT LAYER</text>

  <!-- Main Agent Box -->
  <rect x="60" y="443" width="500" height="215" rx="6" fill="#0f0f0f" stroke="#2a2a2a" stroke-width="1"/>
  <text x="310" y="462" text-anchor="middle" fill="#e8e8e8" font-size="12" font-weight="600">JINN — Main Agent</text>
  <text x="310" y="475" text-anchor="middle" fill="#555" font-size="9">anthropic/claude-sonnet-4-6</text>

  <!-- Model sub-box -->
  <rect x="75" y="483" width="150" height="155" rx="5" fill="#161616" stroke="#2a2a2a" stroke-width="1"/>
  <text x="150" y="500" text-anchor="middle" fill="#888" font-size="10" font-weight="500">MODEL STACK</text>
  <text x="150" y="516" text-anchor="middle" fill="#c4a35a" font-size="10">● Claude Sonnet</text>
  <text x="150" y="528" text-anchor="middle" fill="#555" font-size="9">Primary brain</text>
  <text x="150" y="547" text-anchor="middle" fill="#888" font-size="10">● GPT-5.4</text>
  <text x="150" y="559" text-anchor="middle" fill="#555" font-size="9">Deep reasoning</text>
  <text x="150" y="578" text-anchor="middle" fill="#888" font-size="10">● Haiku / Gemini</text>
  <text x="150" y="590" text-anchor="middle" fill="#555" font-size="9">Background tasks</text>
  <text x="150" y="609" text-anchor="middle" fill="#888" font-size="10">● Claude Code</text>
  <text x="150" y="621" text-anchor="middle" fill="#555" font-size="9">Engineering agent</text>

  <!-- Workspace sub-box -->
  <rect x="240" y="483" width="155" height="155" rx="5" fill="#161616" stroke="#2a2a2a" stroke-width="1"/>
  <text x="317" y="500" text-anchor="middle" fill="#888" font-size="10" font-weight="500">WORKSPACE FILES</text>
  <text x="317" y="516" text-anchor="middle" fill="#555" font-size="9">SOUL.md → personality</text>
  <text x="317" y="529" text-anchor="middle" fill="#555" font-size="9">USER.md → who Sam is</text>
  <text x="317" y="542" text-anchor="middle" fill="#555" font-size="9">MEMORY.md → long-term</text>
  <text x="317" y="555" text-anchor="middle" fill="#555" font-size="9">AGENTS.md → rules</text>
  <text x="317" y="568" text-anchor="middle" fill="#555" font-size="9">BOUNDARIES.md → trust</text>
  <text x="317" y="581" text-anchor="middle" fill="#555" font-size="9">IDENTITY.md → name</text>
  <text x="317" y="594" text-anchor="middle" fill="#555" font-size="9">FEEDBACK.md → learning</text>
  <text x="317" y="607" text-anchor="middle" fill="#555" font-size="9">APPROVAL_QUEUE.md</text>

  <!-- Memory sub-box -->
  <rect x="410" y="483" width="135" height="155" rx="5" fill="#161616" stroke="#2a2a2a" stroke-width="1"/>
  <text x="477" y="500" text-anchor="middle" fill="#888" font-size="10" font-weight="500">MEMORY LAYERS</text>
  <text x="477" y="518" text-anchor="middle" fill="#4ade80" font-size="9">L1 MEMORY.md</text>
  <text x="477" y="529" text-anchor="middle" fill="#555" font-size="8">Tacit knowledge</text>
  <text x="477" y="545" text-anchor="middle" fill="#4ade80" font-size="9">L2 Daily Notes</text>
  <text x="477" y="556" text-anchor="middle" fill="#555" font-size="8">memory/YYYY-MM-DD.md</text>
  <text x="477" y="572" text-anchor="middle" fill="#4ade80" font-size="9">L3 Knowledge Graph</text>
  <text x="477" y="583" text-anchor="middle" fill="#555" font-size="8">life/ PARA structure</text>
  <text x="477" y="599" text-anchor="middle" fill="#555" font-size="9">L4 QMD Search</text>
  <text x="477" y="610" text-anchor="middle" fill="#555" font-size="8">⏳ Due 2026-03-21</text>

  <!-- Sub-agents column -->
  <rect x="580" y="443" width="260" height="215" rx="6" fill="#0f0f0f" stroke="#2a2a2a" stroke-width="1"/>
  <text x="710" y="462" text-anchor="middle" fill="#888" font-size="11" font-weight="500">SUB-AGENTS</text>

  <rect x="595" y="470" width="230" height="50" rx="5" fill="#161616" stroke="#2a2a2a" stroke-width="1"/>
  <text x="710" y="489" text-anchor="middle" fill="#c4a35a" font-size="10" font-weight="500">Claude Code</text>
  <text x="710" y="503" text-anchor="middle" fill="#555" font-size="9">Features · Tests · PR reviews</text>
  <text x="710" y="514" text-anchor="middle" fill="#555" font-size="9">Primary engineer</text>

  <rect x="595" y="530" width="230" height="50" rx="5" fill="#161616" stroke="#2a2a2a" stroke-width="1"/>
  <text x="710" y="549" text-anchor="middle" fill="#888" font-size="10" font-weight="500">Codex</text>
  <text x="710" y="563" text-anchor="middle" fill="#555" font-size="9">Infra · Pipelines · Prototypes</text>
  <text x="710" y="574" text-anchor="middle" fill="#555" font-size="9">Specialist agent</text>

  <rect x="595" y="590" width="230" height="50" rx="5" fill="#161616" stroke="#2a2a2a" stroke-width="1"/>
  <text x="710" y="609" text-anchor="middle" fill="#888" font-size="10" font-weight="500">Haiku (Isolated)</text>
  <text x="710" y="623" text-anchor="middle" fill="#555" font-size="9">Cron jobs · Email triage</text>
  <text x="710" y="634" text-anchor="middle" fill="#555" font-size="9">Memory extraction</text>

  <!-- Arrow down -->
  <line x1="450" y1="675" x2="450" y2="705" stroke="#2a2a2a" stroke-width="1.5"/>
  <polygon points="450,705 445,695 455,695" fill="#2a2a2a"/>

  <!-- ═══════════════════════════════ -->
  <!-- LAYER 5: TOOLS -->
  <!-- ═══════════════════════════════ -->
  <rect x="40" y="705" width="820" height="110" rx="8" fill="#111" stroke="#1a1a1a" stroke-width="1"/>
  <text x="450" y="723" text-anchor="middle" fill="#555" font-size="10" letter-spacing="0.1em">TOOLS LAYER</text>

  <rect x="60" y="730" width="100" height="68" rx="5" fill="#161616" stroke="#2a2a2a" stroke-width="1"/>
  <text x="110" y="748" text-anchor="middle" fill="#c4a35a" font-size="10" font-weight="500">exec</text>
  <text x="110" y="761" text-anchor="middle" fill="#555" font-size="8">Run shell</text>
  <text x="110" y="773" text-anchor="middle" fill="#555" font-size="8">commands</text>
  <text x="110" y="789" text-anchor="middle" fill="#4ade80" font-size="8">✅ Active</text>

  <rect x="170" y="730" width="100" height="68" rx="5" fill="#161616" stroke="#2a2a2a" stroke-width="1"/>
  <text x="220" y="748" text-anchor="middle" fill="#c4a35a" font-size="10" font-weight="500">read</text>
  <text x="220" y="761" text-anchor="middle" fill="#555" font-size="8">Read any file</text>
  <text x="220" y="773" text-anchor="middle" fill="#555" font-size="8">on disk</text>
  <text x="220" y="789" text-anchor="middle" fill="#4ade80" font-size="8">✅ Active</text>

  <rect x="280" y="730" width="100" height="68" rx="5" fill="#161616" stroke="#2a2a2a" stroke-width="1"/>
  <text x="330" y="748" text-anchor="middle" fill="#c4a35a" font-size="10" font-weight="500">write</text>
  <text x="330" y="761" text-anchor="middle" fill="#555" font-size="8">Write any file</text>
  <text x="330" y="773" text-anchor="middle" fill="#555" font-size="8">on disk</text>
  <text x="330" y="789" text-anchor="middle" fill="#4ade80" font-size="8">✅ Active</text>

  <rect x="390" y="730" width="100" height="68" rx="5" fill="#161616" stroke="#2a2a2a" stroke-width="1"/>
  <text x="440" y="748" text-anchor="middle" fill="#888" font-size="10" font-weight="500">gog</text>
  <text x="440" y="761" text-anchor="middle" fill="#555" font-size="8">Gmail · Calendar</text>
  <text x="440" y="773" text-anchor="middle" fill="#555" font-size="8">Drive · Sheets</text>
  <text x="440" y="789" text-anchor="middle" fill="#4ade80" font-size="8">✅ Active</text>

  <rect x="500" y="730" width="100" height="68" rx="5" fill="#161616" stroke="#2a2a2a" stroke-width="1"/>
  <text x="550" y="748" text-anchor="middle" fill="#888" font-size="10" font-weight="500">gh</text>
  <text x="550" y="761" text-anchor="middle" fill="#555" font-size="8">GitHub repos</text>
  <text x="550" y="773" text-anchor="middle" fill="#555" font-size="8">Issues · PRs</text>
  <text x="550" y="789" text-anchor="middle" fill="#4ade80" font-size="8">✅ Active</text>

  <rect x="610" y="730" width="100" height="68" rx="5" fill="#161616" stroke="#2a2a2a" stroke-width="1"/>
  <text x="660" y="748" text-anchor="middle" fill="#888" font-size="10" font-weight="500">xurl</text>
  <text x="660" y="761" text-anchor="middle" fill="#555" font-size="8">Twitter/X</text>
  <text x="660" y="773" text-anchor="middle" fill="#555" font-size="8">Post · Search</text>
  <text x="660" y="789" text-anchor="middle" fill="#555" font-size="8">⏳ Auth needed</text>

  <rect x="720" y="730" width="120" height="68" rx="5" fill="#161616" stroke="#2a2a2a" stroke-width="1"/>
  <text x="780" y="748" text-anchor="middle" fill="#888" font-size="10" font-weight="500">+ 45 Skills</text>
  <text x="780" y="761" text-anchor="middle" fill="#555" font-size="8">reddit · linkedin</text>
  <text x="780" y="773" text-anchor="middle" fill="#555" font-size="8">peekaboo · summarize</text>
  <text x="780" y="789" text-anchor="middle" fill="#555" font-size="8">himalaya · notion...</text>

  <!-- Arrow down -->
  <line x1="450" y1="815" x2="450" y2="845" stroke="#2a2a2a" stroke-width="1.5"/>
  <polygon points="450,845 445,835 455,835" fill="#2a2a2a"/>

  <!-- ═══════════════════════════════ -->
  <!-- LAYER 6: EXTERNAL SERVICES -->
  <!-- ═══════════════════════════════ -->
  <rect x="40" y="845" width="820" height="120" rx="8" fill="#111" stroke="#1a1a1a" stroke-width="1"/>
  <text x="450" y="863" text-anchor="middle" fill="#555" font-size="10" letter-spacing="0.1em">EXTERNAL SERVICES</text>

  <rect x="60" y="872" width="135" height="75" rx="5" fill="#161616" stroke="#2a2a2a" stroke-width="1"/>
  <text x="127" y="890" text-anchor="middle" fill="#888" font-size="10" font-weight="500">AI Providers</text>
  <text x="127" y="905" text-anchor="middle" fill="#c4a35a" font-size="9">● Anthropic (Claude)</text>
  <text x="127" y="918" text-anchor="middle" fill="#888" font-size="9">● OpenAI (GPT-5.4)</text>
  <text x="127" y="931" text-anchor="middle" fill="#888" font-size="9">● Google (Gemini)</text>

  <rect x="210" y="872" width="135" height="75" rx="5" fill="#161616" stroke="#2a2a2a" stroke-width="1"/>
  <text x="277" y="890" text-anchor="middle" fill="#888" font-size="10" font-weight="500">Productivity</text>
  <text x="277" y="905" text-anchor="middle" fill="#888" font-size="9">● Gmail / Calendar</text>
  <text x="277" y="918" text-anchor="middle" fill="#888" font-size="9">● GitHub (2 accounts)</text>
  <text x="277" y="931" text-anchor="middle" fill="#888" font-size="9">● Notion</text>

  <rect x="360" y="872" width="135" height="75" rx="5" fill="#161616" stroke="#2a2a2a" stroke-width="1"/>
  <text x="427" y="890" text-anchor="middle" fill="#888" font-size="10" font-weight="500">Social Media</text>
  <text x="427" y="905" text-anchor="middle" fill="#888" font-size="9">● Twitter/X</text>
  <text x="427" y="918" text-anchor="middle" fill="#888" font-size="9">● Reddit · LinkedIn</text>
  <text x="427" y="931" text-anchor="middle" fill="#888" font-size="9">● Facebook · Instagram</text>

  <rect x="510" y="872" width="135" height="75" rx="5" fill="#161616" stroke="#2a2a2a" stroke-width="1"/>
  <text x="577" y="890" text-anchor="middle" fill="#888" font-size="10" font-weight="500">Commerce</text>
  <text x="577" y="905" text-anchor="middle" fill="#888" font-size="9">● Stripe / Gumroad</text>
  <text x="577" y="918" text-anchor="middle" fill="#888" font-size="9">● Vercel / Netlify</text>
  <text x="577" y="931" text-anchor="middle" fill="#888" font-size="9">● Product Hunt</text>

  <rect x="660" y="872" width="175" height="75" rx="5" fill="#161616" stroke="#2a2a2a" stroke-width="1"/>
  <text x="747" y="890" text-anchor="middle" fill="#888" font-size="10" font-weight="500">Scheduled Tasks</text>
  <text x="747" y="905" text-anchor="middle" fill="#555" font-size="9">01:00 Memory extraction</text>
  <text x="747" y="918" text-anchor="middle" fill="#555" font-size="9">08:00 Morning briefing</text>
  <text x="747" y="931" text-anchor="middle" fill="#555" font-size="9">09/13/18:00 Email triage</text>

  <!-- ═══════════════════════════════ -->
  <!-- TRUST BOUNDARY INDICATOR -->
  <!-- ═══════════════════════════════ -->
  <rect x="40" y="980" width="820" height="50" rx="8" fill="#0f0f0f" stroke="#1a1a1a" stroke-width="1"/>
  <text x="120" y="1002" text-anchor="middle" fill="#4ade80" font-size="10" font-weight="600">✅ TRUSTED</text>
  <text x="120" y="1016" text-anchor="middle" fill="#555" font-size="9">Sam's Telegram (8638441101)</text>
  <line x1="240" y1="985" x2="240" y2="1025" stroke="#2a2a2a" stroke-width="1" stroke-dasharray="4,3"/>
  <text x="450" y="1002" text-anchor="middle" fill="#555" font-size="9">Email · Social DMs · Web content · API webhooks → never executed autonomously</text>
  <line x1="660" y1="985" x2="660" y2="1025" stroke="#2a2a2a" stroke-width="1" stroke-dasharray="4,3"/>
  <text x="780" y="1002" text-anchor="middle" fill="#ff4444" font-size="10" font-weight="600">❌ UNTRUSTED</text>
  <text x="780" y="1016" text-anchor="middle" fill="#555" font-size="9">External instructions</text>

  <!-- Footer -->
  <text x="450" y="1060" text-anchor="middle" fill="#333" font-size="9">Built by Jinn · Running on OpenClaw 2026.3.x · Mac Mini M4 24GB · @JinnOpenClaw</text>

</svg>
